<svg id="svg" fill="#0077FF" stroke="#0077FF" width="200" height="200" version="1.1" viewBox="144 144 512 512" xmlns="http://www.w3.org/2000/svg">
    <g id="IconSvg_bgCarrier" stroke-width="0"></g>
    <g id="IconSvg_tracerCarrier" stroke-linecap="round" stroke-linejoin="round" stroke="#CCCCCC" stroke-width="0">
      <g xmlns="http://www.w3.org/2000/svg" fill-rule="evenodd">
  <path d="m253 463c-46.156 0-83.988 37.836-83.988 83.988v20.918c-0.042969 11.656 9.418 21.117 21.074 21.074h251.96c11.598-0.042968 20.965-9.4766 20.918-21.074v-20.918c0-46.156-37.832-83.988-83.988-83.988z"></path>
  <path d="m316.07 211.03c-57.719 0-105.06 47.344-105.06 105.06s47.344 104.91 105.06 104.91 104.91-47.191 104.91-104.91-47.188-105.06-104.91-105.06z"></path>
  <path d="m504.96 463.02c-9.9453 0-19.371 2.0312-28.25 5.2461 17.59 21.691 28.25 49.133 28.25 78.719v20.91c-0.003906 7.1797-1.2383 14.309-3.6484 21.074h108.57c11.656 0.042968 21.117-9.418 21.074-21.074v-20.91c0-46.156-37.812-83.969-83.969-83.969z"></path>
  <path d="m525.89 295.04c-34.531 0-62.914 28.383-62.914 62.914s28.383 63.07 62.914 63.07 63.07-28.539 63.07-63.07-28.539-62.914-63.07-62.914z"></path>
 </g>

      </g>
     <g id="IconSvg_iconCarrier">
      <g xmlns="http://www.w3.org/2000/svg" fill-rule="evenodd">
  <path d="m253 463c-46.156 0-83.988 37.836-83.988 83.988v20.918c-0.042969 11.656 9.418 21.117 21.074 21.074h251.96c11.598-0.042968 20.965-9.4766 20.918-21.074v-20.918c0-46.156-37.832-83.988-83.988-83.988z"></path>
  <path d="m316.07 211.03c-57.719 0-105.06 47.344-105.06 105.06s47.344 104.91 105.06 104.91 104.91-47.191 104.91-104.91-47.188-105.06-104.91-105.06z"></path>
  <path d="m504.96 463.02c-9.9453 0-19.371 2.0312-28.25 5.2461 17.59 21.691 28.25 49.133 28.25 78.719v20.91c-0.003906 7.1797-1.2383 14.309-3.6484 21.074h108.57c11.656 0.042968 21.117-9.418 21.074-21.074v-20.91c0-46.156-37.812-83.969-83.969-83.969z"></path>
  <path d="m525.89 295.04c-34.531 0-62.914 28.383-62.914 62.914s28.383 63.07 62.914 63.07 63.07-28.539 63.07-63.07-28.539-62.914-63.07-62.914z"></path>
 </g>

      </g>
      </svg>