<svg id="svg" fill="#0077FF" stroke="#0077FF" width="200" height="200" version="1.1" viewBox="144 144 512 512" xmlns="http://www.w3.org/2000/svg">
    <g id="IconSvg_bgCarrier" stroke-width="0"></g>
    <g id="IconSvg_tracerCarrier" stroke-linecap="round" stroke-linejoin="round" stroke="#CCCCCC" stroke-width="0">
      <path xmlns="http://www.w3.org/2000/svg" d="m431.15 189.64c-4.3477 0-7.8164 3.6484-7.75 7.9961l-0.125-0.1875v38.961c-16.895 3.625-32.836 10.266-47.324 19.68l-27.613-27.613c-3.0742-3.0742-8.0586-3.0742-11.133 0l-29.918 29.887c-3.0742 3.0742-3.0742 8.0586 0 11.133l26.812 26.812c-1.7578 3.1328-3.6562 6.1758-5.5977 9.1953h-25.152c-4.3477 0-7.8711 3.5234-7.8711 7.8711v32.348c-13.805 3.082-26.852 8.5-38.777 16.113l-22.91-22.91c-3.0742-3.0742-8.0586-3.0742-11.133 0l-25.398 25.43c-3.0742 3.0742-3.0742 8.0547 0 11.133l22.91 22.91c-7.5781 11.922-12.957 24.953-16.02 38.746h-32.441c-4.3477 0-7.8711 3.5234-7.8711 7.8711v35.918c0 4.3477 3.5234 7.8711 7.8711 7.8711h32.379c3.082 13.797 8.5117 26.824 16.113 38.746l-22.941 22.91c-3.0742 3.0742-3.0742 8.0547 0 11.133l25.398 25.43c3.0742 3.0742 8.0586 3.0742 11.133 0l22.91-22.938c11.93 7.582 24.977 12.961 38.777 16.02v32.441c0 4.3477 3.5234 7.8711 7.8711 7.8711h35.887c4.3477 0 7.8711-3.5234 7.8711-7.8711v-32.348c13.797-3.082 26.828-8.5078 38.746-16.113l22.941 22.91c3.0742 3.0742 8.0586 3.0742 11.133 0l25.398-25.43c1.1445-1.1484 1.9062-2.6172 2.1836-4.2148h25.891c4.3477 0 7.8711-3.5234 7.8711-7.8711v-38.961c16.898-3.625 32.863-10.293 47.355-19.711l27.613 27.645c3.0742 3.0742 8.0586 3.0742 11.133 0l29.891-29.922c3.0742-3.0742 3.0742-8.0586 0-11.133l-27.613-27.613c9.3828-14.488 15.988-30.441 19.59-47.324h39.051c4.3477 0 7.8711-3.5234 7.8711-7.8711v-42.25c0-4.3477-3.5234-7.8711-7.8711-7.8711h-38.961c-3.625-16.898-10.262-32.863-19.68-47.355l27.613-27.613c3.0742-3.0742 3.0742-8.0586 0-11.133l-29.891-29.887c-3.0742-3.0742-8.0586-3.0742-11.133 0l-27.645 27.613c-14.488-9.3789-30.441-15.988-47.324-19.586v-39.055c0-4.3477-3.5234-7.8711-7.8711-7.8711zm21.125 114.36c38.52 0 69.59 31.066 69.586 69.586 0 29.637-18.766 55.438-46.188 65.25-1.3789-1.0703-3.0781-1.6562-4.8281-1.6602h-32.379c-3.082-13.785-8.4844-26.867-16.082-38.777l22.941-22.879c3.0938-3.0781 3.0938-8.082 0-11.16l-25.398-25.398c-3.0742-3.0742-8.0586-3.0742-11.133 0l-22.91 22.91c-0.57031-0.36328-1.1758-0.66016-1.7539-1.0078 6.1094-32.785 34.434-56.855 68.141-56.855zm-131 101.07c32.09 0 57.934 25.844 57.934 57.934 0 32.09-25.84 57.934-57.934 57.934-32.09 0-57.934-25.844-57.934-57.934 0-32.09 25.84-57.934 57.934-57.934z"></path>

      </g>
     <g id="IconSvg_iconCarrier">
      <path xmlns="http://www.w3.org/2000/svg" d="m431.15 189.64c-4.3477 0-7.8164 3.6484-7.75 7.9961l-0.125-0.1875v38.961c-16.895 3.625-32.836 10.266-47.324 19.68l-27.613-27.613c-3.0742-3.0742-8.0586-3.0742-11.133 0l-29.918 29.887c-3.0742 3.0742-3.0742 8.0586 0 11.133l26.812 26.812c-1.7578 3.1328-3.6562 6.1758-5.5977 9.1953h-25.152c-4.3477 0-7.8711 3.5234-7.8711 7.8711v32.348c-13.805 3.082-26.852 8.5-38.777 16.113l-22.91-22.91c-3.0742-3.0742-8.0586-3.0742-11.133 0l-25.398 25.43c-3.0742 3.0742-3.0742 8.0547 0 11.133l22.91 22.91c-7.5781 11.922-12.957 24.953-16.02 38.746h-32.441c-4.3477 0-7.8711 3.5234-7.8711 7.8711v35.918c0 4.3477 3.5234 7.8711 7.8711 7.8711h32.379c3.082 13.797 8.5117 26.824 16.113 38.746l-22.941 22.91c-3.0742 3.0742-3.0742 8.0547 0 11.133l25.398 25.43c3.0742 3.0742 8.0586 3.0742 11.133 0l22.91-22.938c11.93 7.582 24.977 12.961 38.777 16.02v32.441c0 4.3477 3.5234 7.8711 7.8711 7.8711h35.887c4.3477 0 7.8711-3.5234 7.8711-7.8711v-32.348c13.797-3.082 26.828-8.5078 38.746-16.113l22.941 22.91c3.0742 3.0742 8.0586 3.0742 11.133 0l25.398-25.43c1.1445-1.1484 1.9062-2.6172 2.1836-4.2148h25.891c4.3477 0 7.8711-3.5234 7.8711-7.8711v-38.961c16.898-3.625 32.863-10.293 47.355-19.711l27.613 27.645c3.0742 3.0742 8.0586 3.0742 11.133 0l29.891-29.922c3.0742-3.0742 3.0742-8.0586 0-11.133l-27.613-27.613c9.3828-14.488 15.988-30.441 19.59-47.324h39.051c4.3477 0 7.8711-3.5234 7.8711-7.8711v-42.25c0-4.3477-3.5234-7.8711-7.8711-7.8711h-38.961c-3.625-16.898-10.262-32.863-19.68-47.355l27.613-27.613c3.0742-3.0742 3.0742-8.0586 0-11.133l-29.891-29.887c-3.0742-3.0742-8.0586-3.0742-11.133 0l-27.645 27.613c-14.488-9.3789-30.441-15.988-47.324-19.586v-39.055c0-4.3477-3.5234-7.8711-7.8711-7.8711zm21.125 114.36c38.52 0 69.59 31.066 69.586 69.586 0 29.637-18.766 55.438-46.188 65.25-1.3789-1.0703-3.0781-1.6562-4.8281-1.6602h-32.379c-3.082-13.785-8.4844-26.867-16.082-38.777l22.941-22.879c3.0938-3.0781 3.0938-8.082 0-11.16l-25.398-25.398c-3.0742-3.0742-8.0586-3.0742-11.133 0l-22.91 22.91c-0.57031-0.36328-1.1758-0.66016-1.7539-1.0078 6.1094-32.785 34.434-56.855 68.141-56.855zm-131 101.07c32.09 0 57.934 25.844 57.934 57.934 0 32.09-25.84 57.934-57.934 57.934-32.09 0-57.934-25.844-57.934-57.934 0-32.09 25.84-57.934 57.934-57.934z"></path>

      </g>
      </svg>